<?xml version="1.0" encoding="UTF-8"?>
<svg id="Layer_1" data-name="Layer 1" xmlns="http://www.w3.org/2000/svg" viewBox="0 0 361.48 163.81">
  <defs>
    <style>
      .cls-1, .cls-2, .cls-3 {
        fill: none;
      }

      .cls-4 {
        fill: #ca644e;
      }

      .cls-5 {
        fill: #c9644e;
      }

      .cls-6 {
        fill: #3f593f;
      }

      .cls-2 {
        stroke: #c9644e;
      }

      .cls-2, .cls-3 {
        stroke-miterlimit: 10;
        stroke-width: 5px;
      }

      .cls-3 {
        stroke: #ca644e;
      }

      .cls-7 {
        isolation: isolate;
      }
    </style>
  </defs>
  <g>
    <circle class="cls-5" cx="89.19" cy="81.09" r="38.5"/>
    <line class="cls-3" x1="90.22" y1="38.15" x2="90.22" y2="2.5"/>
    <line class="cls-2" x1="89.19" y1="159.69" x2="89.19" y2="124.03"/>
    <line class="cls-3" x1="167.79" y1="81.09" x2="132.13" y2="81.09"/>
    <line class="cls-3" x1="46.25" y1="81.09" x2="10.6" y2="81.09"/>
    <line class="cls-2" x1="61.95" y1="48.12" x2="40.34" y2="22.81"/>
    <line class="cls-3" x1="147.01" y1="23.45" x2="119.35" y2="50.5"/>
    <line class="cls-2" x1="58.86" y1="111.3" x2="33.65" y2="136.51"/>
    <line class="cls-3" x1="140.84" y1="140.53" x2="117.69" y2="113.41"/>
    <circle class="cls-1" cx="89.19" cy="81.09" r="42.94"/>
  </g>
  <rect class="cls-1" x="167.79" y="66.83" width="193.69" height="67.76"/>
  <g class="cls-7">
    <path class="cls-4" d="m199.92,68.43v26.6h-4.94v-11.4h-13.75v11.4h-4.94v-26.6h4.94v10.98h13.75v-10.98h4.94Z"/>
    <path class="cls-4" d="m227.01,90.89v4.14h-19.95v-26.6h19.42v4.14h-14.48v6.92h12.84v4.06h-12.84v7.33h15.01Z"/>
    <path class="cls-4" d="m243.7,85.64v9.38h-4.94v-9.31l-10.45-17.29h5.28l7.79,12.96,7.87-12.96h4.86l-10.41,17.21Z"/>
    <path class="cls-4" d="m285.99,81.43h4.67v10.6c-2.77,2.24-6.65,3.38-10.41,3.38-8.24,0-14.32-5.74-14.32-13.68s6.08-13.68,14.4-13.68c4.45,0,8.17,1.48,10.68,4.33l-3.12,3.04c-2.09-2.09-4.48-3.04-7.33-3.04-5.66,0-9.65,3.84-9.65,9.35s3.99,9.35,9.61,9.35c1.9,0,3.76-.38,5.47-1.37v-8.28Z"/>
    <path class="cls-4" d="m297.16,68.43h4.94v26.6h-4.94v-26.6Z"/>
    <path class="cls-4" d="m326.68,95.03l-5.43-7.79c-.34.04-.68.04-1.03.04h-6v7.75h-4.94v-26.6h10.94c6.99,0,11.32,3.57,11.32,9.46,0,4.03-2.05,6.99-5.66,8.4l6.12,8.74h-5.32Zm-6.69-22.42h-5.78v10.6h5.78c4.33,0,6.57-1.98,6.57-5.32s-2.24-5.28-6.57-5.28Z"/>
    <path class="cls-4" d="m337.06,68.43h4.94v22.42h13.91v4.18h-18.84v-26.6Z"/>
  </g>
  <g class="cls-7">
    <path class="cls-6" d="m189.32,109.92c0,3.64-2.56,6.26-6,6.26-1.82,0-3.16-.68-3.84-1.92l-1.12,5.68h-1.92l2.88-14.48h1.84l-.26,1.32c.94-.9,2.2-1.42,3.74-1.42,2.7,0,4.68,1.7,4.68,4.56Zm-1.94.1c0-1.88-1.14-2.98-3.16-2.98-2.4,0-4.14,1.86-4.14,4.48,0,1.86,1.14,2.98,3.16,2.98,2.38,0,4.14-1.86,4.14-4.48Z"/>
    <path class="cls-6" d="m202.94,105.46l-2.1,10.6h-1.84l.26-1.3c-.94.9-2.22,1.42-3.74,1.42-2.7,0-4.68-1.72-4.68-4.58,0-3.64,2.56-6.24,6-6.24,1.82,0,3.14.66,3.82,1.9l.36-1.8h1.92Zm-2.86,4.56c0-1.88-1.14-2.98-3.16-2.98-2.38,0-4.14,1.86-4.14,4.48,0,1.86,1.14,2.98,3.16,2.98,2.4,0,4.14-1.86,4.14-4.48Z"/>
    <path class="cls-6" d="m203.48,114.96l.86-1.52c.82.66,2.24,1.08,3.68,1.08,1.84,0,2.78-.58,2.78-1.56,0-2.06-5.88-.58-5.88-4.16,0-2.1,1.9-3.44,4.8-3.44,1.4,0,2.84.36,3.7.96l-.76,1.52c-.86-.6-2.04-.84-3.12-.84-1.78,0-2.7.66-2.7,1.58,0,2.14,5.86.64,5.86,4.16,0,2.2-1.98,3.44-4.86,3.44-1.8,0-3.5-.52-4.36-1.22Z"/>
    <path class="cls-6" d="m213.5,114.96l.86-1.52c.82.66,2.24,1.08,3.68,1.08,1.84,0,2.78-.58,2.78-1.56,0-2.06-5.88-.58-5.88-4.16,0-2.1,1.9-3.44,4.8-3.44,1.4,0,2.84.36,3.7.96l-.76,1.52c-.86-.6-2.04-.84-3.12-.84-1.78,0-2.7.66-2.7,1.58,0,2.14,5.86.64,5.86,4.16,0,2.2-1.98,3.44-4.86,3.44-1.8,0-3.5-.52-4.36-1.22Z"/>
    <path class="cls-6" d="m226.64,105.46h1.92l-2.1,10.6h-1.92l2.1-10.6Zm.32-3.2c0-.74.56-1.34,1.38-1.34.7,0,1.22.52,1.22,1.12,0,.82-.58,1.38-1.4,1.38-.7,0-1.2-.52-1.2-1.16Z"/>
    <path class="cls-6" d="m230.1,111.6c0-3.58,2.6-6.24,6.22-6.24,3.02,0,4.96,1.78,4.96,4.56,0,3.6-2.58,6.26-6.2,6.26-3.02,0-4.98-1.82-4.98-4.58Zm9.24-1.58c0-1.88-1.14-2.98-3.16-2.98-2.38,0-4.14,1.86-4.14,4.48,0,1.86,1.14,2.98,3.16,2.98,2.4,0,4.14-1.86,4.14-4.48Z"/>
    <path class="cls-6" d="m254.18,108.88c0,.38-.04.8-.12,1.24l-1.18,5.94h-1.92l1.18-5.94c.06-.32.1-.62.1-.88,0-1.38-.8-2.16-2.46-2.16-2.06,0-3.46,1.1-3.92,3.38l-1.12,5.6h-1.92l2.1-10.6h1.84l-.26,1.36c.98-1,2.32-1.46,3.84-1.46,2.4,0,3.84,1.26,3.84,3.52Z"/>
    <path class="cls-6" d="m266.26,104.62l-.18.84h3.08l-.32,1.58h-3.02l-1.82,9.02h-1.92l1.82-9.02h-1.82l.3-1.58h1.84l.2-1c.42-2.12,1.74-3.36,3.92-3.36.88,0,1.7.24,2.22.66l-.8,1.42c-.36-.32-.84-.5-1.42-.5-1.16,0-1.8.62-2.08,1.94Z"/>
    <path class="cls-6" d="m268.7,111.6c0-3.58,2.6-6.24,6.22-6.24,3.02,0,4.96,1.78,4.96,4.56,0,3.6-2.58,6.26-6.2,6.26-3.02,0-4.98-1.82-4.98-4.58Zm9.24-1.58c0-1.88-1.14-2.98-3.16-2.98-2.38,0-4.14,1.86-4.14,4.48,0,1.86,1.14,2.98,3.16,2.98,2.4,0,4.14-1.86,4.14-4.48Z"/>
    <path class="cls-6" d="m289.26,105.36l-.36,1.86c-.18-.02-.3-.02-.5-.02-2.12,0-3.52,1.12-4,3.56l-1.06,5.3h-1.92l2.1-10.6h1.84l-.3,1.58c.96-1.2,2.3-1.68,4.2-1.68Z"/>
    <path class="cls-6" d="m297.84,112.68c-.04.2-.06.38-.06.56,0,.82.44,1.32,1.4,1.32.52,0,1.08-.18,1.52-.5l.4,1.46c-.72.5-1.62.66-2.46.66-1.66,0-2.8-1-2.8-2.66,0-.24.02-.52.08-.8l1.14-5.68h-1.8l.3-1.58h1.82l.46-2.32h1.92l-.46,2.32h3.04l-.32,1.58h-3.04l-1.14,5.64Z"/>
    <path class="cls-6" d="m311.12,105.36l-.36,1.86c-.18-.02-.3-.02-.5-.02-2.12,0-3.52,1.12-4,3.56l-1.06,5.3h-1.92l2.1-10.6h1.84l-.3,1.58c.96-1.2,2.3-1.68,4.2-1.68Z"/>
    <path class="cls-6" d="m323.32,105.46l-2.1,10.6h-1.84l.26-1.3c-.94.9-2.22,1.42-3.74,1.42-2.7,0-4.68-1.72-4.68-4.58,0-3.64,2.56-6.24,6-6.24,1.82,0,3.14.66,3.82,1.9l.36-1.8h1.92Zm-2.86,4.56c0-1.88-1.14-2.98-3.16-2.98-2.38,0-4.14,1.86-4.14,4.48,0,1.86,1.14,2.98,3.16,2.98,2.4,0,4.14-1.86,4.14-4.48Z"/>
    <path class="cls-6" d="m336.36,105.46l-6.74,10.6h-1.96l-2.54-10.6h1.92l1.98,8.5,5.4-8.5h1.94Z"/>
    <path class="cls-6" d="m337.62,111.36v.12c0,1.94,1.08,3.02,3.36,3.02,1.32,0,2.52-.48,3.28-1.22l.82,1.38c-1.04.98-2.64,1.52-4.26,1.52-3.14,0-5.08-1.8-5.08-4.6,0-3.6,2.52-6.22,5.98-6.22,2.86,0,4.74,1.72,4.74,4.58,0,.5-.06.98-.14,1.42h-8.7Zm.2-1.4h6.84c.1-1.94-1.14-3-3.02-3s-3.34,1.16-3.82,3Z"/>
    <path class="cls-6" d="m350.94,101.22h1.92l-2.96,14.84h-1.92l2.96-14.84Z"/>
  </g>
</svg>