<?xml version="1.0" encoding="utf-8"?>
<!-- Generator: Adobe Illustrator 27.3.1, SVG Export Plug-In . SVG Version: 6.00 Build 0)  -->
<svg version="1.1" id="Layer_1" xmlns="http://www.w3.org/2000/svg" xmlns:xlink="http://www.w3.org/1999/xlink" x="0px" y="0px"
	 viewBox="0 0 361.48 163.81" style="enable-background:new 0 0 361.48 163.81;" xml:space="preserve">
<style type="text/css">
	.st0{fill:none;stroke:#000000;stroke-width:5;stroke-miterlimit:10;}
	.st1{fill:#C9644E;}
	.st2{fill:none;stroke:#CA644E;stroke-width:5;stroke-miterlimit:10;}
	.st3{fill:none;stroke:#C9644E;stroke-width:5;stroke-miterlimit:10;}
	.st4{fill:none;}
	.st5{fill:#CA644E;}
	.st6{font-family:'Montserrat-SemiBold';}
	.st7{font-size:38px;}
	.st8{fill:#3F593F;}
	.st9{font-family:'Montserrat-MediumItalic';}
	.st10{font-size:20px;}
</style>
<line class="st0" x1="492.29" y1="328.97" x2="492.29" y2="328.97"/>
<g>
	<circle class="st1" cx="89.19" cy="81.09" r="38.5"/>
	<line class="st2" x1="90.22" y1="38.15" x2="90.22" y2="2.5"/>
	<line class="st3" x1="89.19" y1="159.69" x2="89.19" y2="124.03"/>
	<line class="st2" x1="167.79" y1="81.09" x2="132.13" y2="81.09"/>
	<line class="st2" x1="46.25" y1="81.09" x2="10.6" y2="81.09"/>
	<line class="st3" x1="61.95" y1="48.12" x2="40.34" y2="22.81"/>
	<line class="st2" x1="147.01" y1="23.45" x2="119.35" y2="50.5"/>
	<line class="st3" x1="58.86" y1="111.3" x2="33.65" y2="136.51"/>
	<line class="st2" x1="140.84" y1="140.53" x2="117.69" y2="113.41"/>
	<circle class="st4" cx="89.19" cy="81.09" r="42.94"/>
</g>
<rect x="167.79" y="66.83" class="st4" width="193.69" height="67.76"/>
<text transform="matrix(1 0 0 1 172.7141 95.0299)" class="st5 st6 st7">HEY GIRL</text>
<text transform="matrix(1 0 0 1 176.4392 116.0636)" class="st8 st9 st10">passion for travel</text>
</svg>
